<mxfile host="app.diagrams.net" modified="2022-07-21T15:47:55.538Z" agent="5.0 (Windows)" etag="W_BH8yqTdcbmTdPTXOD7" version="20.1.3" type="github" pages="2">
  <diagram id="v4GTke8sb0EKjKPMF_RU" name="Pàgina-1">
    <mxGraphModel dx="1398" dy="1514" grid="0" gridSize="10" guides="1" tooltips="1" connect="1" arrows="1" fold="1" page="1" pageScale="1" pageWidth="1169" pageHeight="827" math="0" shadow="0">
      <root>
        <mxCell id="0" />
        <mxCell id="1" parent="0" />
        <mxCell id="p8o261xMvfaMvEFh0hcM-1" value="Cliente" style="swimlane;childLayout=stackLayout;horizontal=1;startSize=30;horizontalStack=0;rounded=1;fontSize=14;fontStyle=0;strokeWidth=2;resizeParent=0;resizeLast=1;shadow=0;dashed=0;align=center;html=1;" parent="1" vertex="1">
          <mxGeometry x="292" y="-721" width="127" height="140" as="geometry" />
        </mxCell>
        <mxCell id="p8o261xMvfaMvEFh0hcM-2" value="&lt;div&gt;- &lt;u&gt;codigoCliente&lt;/u&gt;&lt;/div&gt;&lt;div&gt;- dni&lt;/div&gt;&lt;div&gt;- nombre&lt;/div&gt;&lt;div&gt;- apellido&lt;/div&gt;&lt;div&gt;- teléfono&lt;/div&gt;&lt;div&gt;- nº tarjeta&lt;/div&gt;" style="align=left;strokeColor=none;fillColor=none;spacingLeft=4;fontSize=12;verticalAlign=top;resizable=0;rotatable=0;part=1;html=1;" parent="p8o261xMvfaMvEFh0hcM-1" vertex="1">
          <mxGeometry y="30" width="127" height="110" as="geometry" />
        </mxCell>
        <mxCell id="p8o261xMvfaMvEFh0hcM-3" value="Embarque" style="swimlane;childLayout=stackLayout;horizontal=1;startSize=30;horizontalStack=0;rounded=1;fontSize=14;fontStyle=0;strokeWidth=2;resizeParent=0;resizeLast=1;shadow=0;dashed=0;align=center;html=1;" parent="1" vertex="1">
          <mxGeometry x="813" y="-689" width="127" height="60" as="geometry" />
        </mxCell>
        <mxCell id="p8o261xMvfaMvEFh0hcM-4" value="&lt;div&gt;- &lt;u&gt;codigoEmbarque&lt;/u&gt;&lt;/div&gt;" style="align=left;strokeColor=none;fillColor=none;spacingLeft=4;fontSize=12;verticalAlign=top;resizable=0;rotatable=0;part=1;html=1;" parent="p8o261xMvfaMvEFh0hcM-3" vertex="1">
          <mxGeometry y="30" width="127" height="30" as="geometry" />
        </mxCell>
        <mxCell id="p8o261xMvfaMvEFh0hcM-5" value="Reserva" style="swimlane;childLayout=stackLayout;horizontal=1;startSize=30;horizontalStack=0;rounded=1;fontSize=14;fontStyle=0;strokeWidth=2;resizeParent=0;resizeLast=1;shadow=0;dashed=0;align=center;html=1;" parent="1" vertex="1">
          <mxGeometry x="548" y="-537" width="127" height="88" as="geometry" />
        </mxCell>
        <mxCell id="p8o261xMvfaMvEFh0hcM-6" value="&lt;div&gt;- &lt;u&gt;codigoReserva&lt;/u&gt;&lt;/div&gt;&lt;div&gt;- fecha&lt;/div&gt;&lt;div&gt;- plazas&lt;br&gt;&lt;/div&gt;" style="align=left;strokeColor=none;fillColor=none;spacingLeft=4;fontSize=12;verticalAlign=top;resizable=0;rotatable=0;part=1;html=1;" parent="p8o261xMvfaMvEFh0hcM-5" vertex="1">
          <mxGeometry y="30" width="127" height="58" as="geometry" />
        </mxCell>
        <mxCell id="p8o261xMvfaMvEFh0hcM-7" value="Vuelo" style="swimlane;childLayout=stackLayout;horizontal=1;startSize=30;horizontalStack=0;rounded=1;fontSize=14;fontStyle=0;strokeWidth=2;resizeParent=0;resizeLast=1;shadow=0;dashed=0;align=center;html=1;" parent="1" vertex="1">
          <mxGeometry x="549" y="-303" width="127" height="90" as="geometry" />
        </mxCell>
        <mxCell id="p8o261xMvfaMvEFh0hcM-8" value="&lt;div&gt;- &lt;u&gt;codigoVuelo&lt;/u&gt;&lt;/div&gt;&lt;div&gt;- fechaSalida&lt;/div&gt;&lt;div&gt;- fechaLlegada&lt;/div&gt;" style="align=left;strokeColor=none;fillColor=none;spacingLeft=4;fontSize=12;verticalAlign=top;resizable=0;rotatable=0;part=1;html=1;" parent="p8o261xMvfaMvEFh0hcM-7" vertex="1">
          <mxGeometry y="30" width="127" height="60" as="geometry" />
        </mxCell>
        <mxCell id="p8o261xMvfaMvEFh0hcM-9" value="Asiento" style="swimlane;childLayout=stackLayout;horizontal=1;startSize=30;horizontalStack=0;rounded=1;fontSize=14;fontStyle=0;strokeWidth=2;resizeParent=0;resizeLast=1;shadow=0;dashed=0;align=center;html=1;" parent="1" vertex="1">
          <mxGeometry x="547" y="-436" width="127" height="100" as="geometry" />
        </mxCell>
        <mxCell id="p8o261xMvfaMvEFh0hcM-10" value="&lt;div&gt;- &lt;u&gt;codigoAvion&lt;/u&gt;&lt;/div&gt;&lt;div&gt;- fila&lt;/div&gt;&lt;div&gt;- columna&lt;/div&gt;&lt;div&gt;- planta&lt;/div&gt;" style="align=left;strokeColor=none;fillColor=none;spacingLeft=4;fontSize=12;verticalAlign=top;resizable=0;rotatable=0;part=1;html=1;" parent="p8o261xMvfaMvEFh0hcM-9" vertex="1">
          <mxGeometry y="30" width="127" height="70" as="geometry" />
        </mxCell>
        <mxCell id="p8o261xMvfaMvEFh0hcM-13" value="Aeropuerto" style="swimlane;childLayout=stackLayout;horizontal=1;startSize=30;horizontalStack=0;rounded=1;fontSize=14;fontStyle=0;strokeWidth=2;resizeParent=0;resizeLast=1;shadow=0;dashed=0;align=center;html=1;" parent="1" vertex="1">
          <mxGeometry x="854" y="-308" width="127" height="100" as="geometry" />
        </mxCell>
        <mxCell id="p8o261xMvfaMvEFh0hcM-14" value="&lt;div&gt;- &lt;u&gt;codigoAeropuerto&lt;/u&gt;&lt;/div&gt;&lt;div&gt;- nombre&lt;/div&gt;&lt;div&gt;- localidad&lt;/div&gt;&lt;div&gt;- pais&lt;/div&gt;" style="align=left;strokeColor=none;fillColor=none;spacingLeft=4;fontSize=12;verticalAlign=top;resizable=0;rotatable=0;part=1;html=1;" parent="p8o261xMvfaMvEFh0hcM-13" vertex="1">
          <mxGeometry y="30" width="127" height="70" as="geometry" />
        </mxCell>
        <mxCell id="p8o261xMvfaMvEFh0hcM-17" value="Avión" style="swimlane;childLayout=stackLayout;horizontal=1;startSize=30;horizontalStack=0;rounded=1;fontSize=14;fontStyle=0;strokeWidth=2;resizeParent=0;resizeLast=1;shadow=0;dashed=0;align=center;html=1;" parent="1" vertex="1">
          <mxGeometry x="291" y="-437" width="127" height="100" as="geometry" />
        </mxCell>
        <mxCell id="p8o261xMvfaMvEFh0hcM-18" value="&lt;div&gt;- &lt;u&gt;codigoAvion&lt;/u&gt;&lt;/div&gt;&lt;div&gt;- modelo&lt;/div&gt;&lt;div&gt;- plazas&lt;/div&gt;" style="align=left;strokeColor=none;fillColor=none;spacingLeft=4;fontSize=12;verticalAlign=top;resizable=0;rotatable=0;part=1;html=1;" parent="p8o261xMvfaMvEFh0hcM-17" vertex="1">
          <mxGeometry y="30" width="127" height="70" as="geometry" />
        </mxCell>
        <mxCell id="p8o261xMvfaMvEFh0hcM-19" value="obtiene" style="shape=rhombus;perimeter=rhombusPerimeter;whiteSpace=wrap;html=1;align=center;" parent="1" vertex="1">
          <mxGeometry x="554.5" y="-710" width="120" height="60" as="geometry" />
        </mxCell>
        <mxCell id="p8o261xMvfaMvEFh0hcM-20" value="hace" style="shape=rhombus;perimeter=rhombusPerimeter;whiteSpace=wrap;html=1;align=center;" parent="1" vertex="1">
          <mxGeometry x="465" y="-612" width="120" height="60" as="geometry" />
        </mxCell>
        <mxCell id="p8o261xMvfaMvEFh0hcM-21" value="crea" style="shape=rhombus;perimeter=rhombusPerimeter;whiteSpace=wrap;html=1;align=center;" parent="1" vertex="1">
          <mxGeometry x="641" y="-612" width="120" height="60" as="geometry" />
        </mxCell>
        <mxCell id="p8o261xMvfaMvEFh0hcM-22" value="" style="endArrow=none;html=1;rounded=0;" parent="1" source="p8o261xMvfaMvEFh0hcM-2" target="p8o261xMvfaMvEFh0hcM-20" edge="1">
          <mxGeometry relative="1" as="geometry">
            <mxPoint x="761" y="-377" as="sourcePoint" />
            <mxPoint x="921" y="-377" as="targetPoint" />
          </mxGeometry>
        </mxCell>
        <mxCell id="p8o261xMvfaMvEFh0hcM-23" value="" style="endArrow=none;html=1;rounded=0;" parent="1" source="p8o261xMvfaMvEFh0hcM-20" target="p8o261xMvfaMvEFh0hcM-5" edge="1">
          <mxGeometry relative="1" as="geometry">
            <mxPoint x="328" y="-530.0831099195711" as="sourcePoint" />
            <mxPoint x="407.37426900584796" y="-515.187134502924" as="targetPoint" />
          </mxGeometry>
        </mxCell>
        <mxCell id="p8o261xMvfaMvEFh0hcM-24" value="" style="endArrow=none;html=1;rounded=0;" parent="1" source="p8o261xMvfaMvEFh0hcM-5" target="p8o261xMvfaMvEFh0hcM-21" edge="1">
          <mxGeometry relative="1" as="geometry">
            <mxPoint x="502.15479115479116" y="-502.5773955773957" as="sourcePoint" />
            <mxPoint x="561" y="-497.4899135446685" as="targetPoint" />
          </mxGeometry>
        </mxCell>
        <mxCell id="p8o261xMvfaMvEFh0hcM-25" value="" style="endArrow=none;html=1;rounded=0;" parent="1" source="p8o261xMvfaMvEFh0hcM-21" target="p8o261xMvfaMvEFh0hcM-4" edge="1">
          <mxGeometry relative="1" as="geometry">
            <mxPoint x="681.8461538461538" y="-527" as="sourcePoint" />
            <mxPoint x="703.9809725158566" y="-540.5095137420719" as="targetPoint" />
          </mxGeometry>
        </mxCell>
        <mxCell id="p8o261xMvfaMvEFh0hcM-26" value="" style="endArrow=none;html=1;rounded=0;" parent="1" source="p8o261xMvfaMvEFh0hcM-2" target="p8o261xMvfaMvEFh0hcM-19" edge="1">
          <mxGeometry relative="1" as="geometry">
            <mxPoint x="765.3040685224842" y="-569.8479657387579" as="sourcePoint" />
            <mxPoint x="824.4499999999998" y="-592" as="targetPoint" />
          </mxGeometry>
        </mxCell>
        <mxCell id="p8o261xMvfaMvEFh0hcM-27" value="" style="endArrow=none;html=1;rounded=0;" parent="1" source="p8o261xMvfaMvEFh0hcM-19" target="p8o261xMvfaMvEFh0hcM-4" edge="1">
          <mxGeometry relative="1" as="geometry">
            <mxPoint x="328" y="-567.0789889415482" as="sourcePoint" />
            <mxPoint x="547.4783759929392" y="-653.7608120035306" as="targetPoint" />
          </mxGeometry>
        </mxCell>
        <mxCell id="p8o261xMvfaMvEFh0hcM-28" value="sale" style="shape=rhombus;perimeter=rhombusPerimeter;whiteSpace=wrap;html=1;align=center;" parent="1" vertex="1">
          <mxGeometry x="703" y="-333" width="120" height="60" as="geometry" />
        </mxCell>
        <mxCell id="p8o261xMvfaMvEFh0hcM-29" value="llega" style="shape=rhombus;perimeter=rhombusPerimeter;whiteSpace=wrap;html=1;align=center;" parent="1" vertex="1">
          <mxGeometry x="703" y="-233" width="120" height="60" as="geometry" />
        </mxCell>
        <mxCell id="p8o261xMvfaMvEFh0hcM-30" value="" style="endArrow=none;html=1;rounded=0;exitX=1;exitY=0.25;exitDx=0;exitDy=0;" parent="1" source="p8o261xMvfaMvEFh0hcM-7" target="p8o261xMvfaMvEFh0hcM-28" edge="1">
          <mxGeometry relative="1" as="geometry">
            <mxPoint x="502.15479115479116" y="-502.5773955773957" as="sourcePoint" />
            <mxPoint x="561" y="-497.4899135446685" as="targetPoint" />
          </mxGeometry>
        </mxCell>
        <mxCell id="p8o261xMvfaMvEFh0hcM-31" value="" style="endArrow=none;html=1;rounded=0;entryX=0;entryY=0.25;entryDx=0;entryDy=0;" parent="1" source="p8o261xMvfaMvEFh0hcM-28" target="p8o261xMvfaMvEFh0hcM-13" edge="1">
          <mxGeometry relative="1" as="geometry">
            <mxPoint x="660" y="-117" as="sourcePoint" />
            <mxPoint x="742.1688311688313" y="-161.41558441558436" as="targetPoint" />
          </mxGeometry>
        </mxCell>
        <mxCell id="p8o261xMvfaMvEFh0hcM-32" value="" style="endArrow=none;html=1;rounded=0;" parent="1" source="p8o261xMvfaMvEFh0hcM-29" target="p8o261xMvfaMvEFh0hcM-14" edge="1">
          <mxGeometry relative="1" as="geometry">
            <mxPoint x="806.8683729433274" y="-164.93418647166345" as="sourcePoint" />
            <mxPoint x="871" y="-143.36085626911336" as="targetPoint" />
          </mxGeometry>
        </mxCell>
        <mxCell id="p8o261xMvfaMvEFh0hcM-33" value="" style="endArrow=none;html=1;rounded=0;" parent="1" source="p8o261xMvfaMvEFh0hcM-8" target="p8o261xMvfaMvEFh0hcM-29" edge="1">
          <mxGeometry relative="1" as="geometry">
            <mxPoint x="813.2345215759851" y="-79.38273921200744" as="sourcePoint" />
            <mxPoint x="871" y="-99.68370607028737" as="targetPoint" />
          </mxGeometry>
        </mxCell>
        <mxCell id="p8o261xMvfaMvEFh0hcM-34" value="hace" style="shape=rhombus;perimeter=rhombusPerimeter;whiteSpace=wrap;html=1;align=center;" parent="1" vertex="1">
          <mxGeometry x="295.5" y="-310" width="120" height="60" as="geometry" />
        </mxCell>
        <mxCell id="p8o261xMvfaMvEFh0hcM-36" value="" style="endArrow=none;html=1;rounded=0;" parent="1" source="p8o261xMvfaMvEFh0hcM-18" target="p8o261xMvfaMvEFh0hcM-34" edge="1">
          <mxGeometry relative="1" as="geometry">
            <mxPoint x="660" y="-117" as="sourcePoint" />
            <mxPoint x="742.1688311688313" y="-161.41558441558436" as="targetPoint" />
          </mxGeometry>
        </mxCell>
        <mxCell id="p8o261xMvfaMvEFh0hcM-37" value="" style="endArrow=none;html=1;rounded=0;exitX=1;exitY=0.5;exitDx=0;exitDy=0;entryX=0;entryY=0.25;entryDx=0;entryDy=0;" parent="1" source="p8o261xMvfaMvEFh0hcM-34" target="p8o261xMvfaMvEFh0hcM-7" edge="1">
          <mxGeometry relative="1" as="geometry">
            <mxPoint x="358" y="-176.4139194139193" as="sourcePoint" />
            <mxPoint x="397.7748478701826" y="-160.3874239350912" as="targetPoint" />
          </mxGeometry>
        </mxCell>
        <mxCell id="p8o261xMvfaMvEFh0hcM-38" value="" style="endArrow=none;html=1;rounded=0;dashed=1;entryX=0;entryY=0;entryDx=0;entryDy=0;exitX=1;exitY=0;exitDx=0;exitDy=0;" parent="1" source="p8o261xMvfaMvEFh0hcM-18" target="p8o261xMvfaMvEFh0hcM-10" edge="1">
          <mxGeometry relative="1" as="geometry">
            <mxPoint x="358" y="-194.98158368922122" as="sourcePoint" />
            <mxPoint x="752.1688311688313" y="-151.41558441558436" as="targetPoint" />
          </mxGeometry>
        </mxCell>
        <mxCell id="p8o261xMvfaMvEFh0hcM-39" value="" style="endArrow=none;html=1;rounded=0;" parent="1" source="p8o261xMvfaMvEFh0hcM-40" target="p8o261xMvfaMvEFh0hcM-4" edge="1">
          <mxGeometry relative="1" as="geometry">
            <mxPoint x="851" y="-497" as="sourcePoint" />
            <mxPoint x="742.168831168831" y="-161.41558441558436" as="targetPoint" />
          </mxGeometry>
        </mxCell>
        <mxCell id="p8o261xMvfaMvEFh0hcM-40" value="asigna" style="shape=rhombus;perimeter=rhombusPerimeter;whiteSpace=wrap;html=1;align=center;" parent="1" vertex="1">
          <mxGeometry x="816.5" y="-436" width="120" height="60" as="geometry" />
        </mxCell>
        <mxCell id="p8o261xMvfaMvEFh0hcM-41" value="" style="endArrow=none;html=1;rounded=0;exitX=1;exitY=0;exitDx=0;exitDy=0;" parent="1" source="p8o261xMvfaMvEFh0hcM-10" target="p8o261xMvfaMvEFh0hcM-40" edge="1">
          <mxGeometry relative="1" as="geometry">
            <mxPoint x="837.4114832535886" y="-493.7942583732056" as="sourcePoint" />
            <mxPoint x="860.9107142857142" y="-592" as="targetPoint" />
          </mxGeometry>
        </mxCell>
        <mxCell id="rjHRRBGP3kgQgbL_9xQ--1" value="&lt;b&gt;DIAGRAMA EJERCICIO 8&lt;/b&gt;" style="text;html=1;align=center;verticalAlign=middle;resizable=0;points=[];autosize=1;strokeColor=none;fillColor=none;" parent="1" vertex="1">
          <mxGeometry x="538.5" y="-779" width="152" height="26" as="geometry" />
        </mxCell>
      </root>
    </mxGraphModel>
  </diagram>
  <diagram id="sM4zINIGI0wc3yk7gtln" name="Página-2">
    <mxGraphModel dx="1199" dy="1416" grid="0" gridSize="10" guides="1" tooltips="1" connect="1" arrows="1" fold="1" page="1" pageScale="1" pageWidth="1169" pageHeight="827" math="0" shadow="0">
      <root>
        <mxCell id="0" />
        <mxCell id="1" parent="0" />
        <mxCell id="uL5ODZiXSjdfLQcJrWgq-1" value="Cliente" style="swimlane;childLayout=stackLayout;horizontal=1;startSize=30;horizontalStack=0;rounded=1;fontSize=14;fontStyle=0;strokeWidth=2;resizeParent=0;resizeLast=1;shadow=0;dashed=0;align=center;html=1;" vertex="1" parent="1">
          <mxGeometry x="141" y="-733" width="127" height="140" as="geometry" />
        </mxCell>
        <mxCell id="uL5ODZiXSjdfLQcJrWgq-2" value="&lt;div&gt;- &lt;u&gt;codigoCliente&lt;/u&gt;&lt;/div&gt;&lt;div&gt;- dni&lt;/div&gt;&lt;div&gt;- nombre&lt;/div&gt;&lt;div&gt;- apellido&lt;/div&gt;&lt;div&gt;- teléfono&lt;/div&gt;&lt;div&gt;- nº tarjeta&lt;/div&gt;" style="align=left;strokeColor=none;fillColor=none;spacingLeft=4;fontSize=12;verticalAlign=top;resizable=0;rotatable=0;part=1;html=1;" vertex="1" parent="uL5ODZiXSjdfLQcJrWgq-1">
          <mxGeometry y="30" width="127" height="110" as="geometry" />
        </mxCell>
        <mxCell id="vdG5TwxK16fCbcHkyAHa-1" value="Vuelo" style="swimlane;childLayout=stackLayout;horizontal=1;startSize=30;horizontalStack=0;rounded=1;fontSize=14;fontStyle=0;strokeWidth=2;resizeParent=0;resizeLast=1;shadow=0;dashed=0;align=center;html=1;" vertex="1" parent="1">
          <mxGeometry x="516" y="-704" width="127" height="90" as="geometry" />
        </mxCell>
        <mxCell id="vdG5TwxK16fCbcHkyAHa-2" value="&lt;div&gt;- &lt;u&gt;codigoVuelo&lt;/u&gt;&lt;/div&gt;&lt;div&gt;- fechaSalida&lt;/div&gt;&lt;div&gt;- fechaLlegada&lt;/div&gt;" style="align=left;strokeColor=none;fillColor=none;spacingLeft=4;fontSize=12;verticalAlign=top;resizable=0;rotatable=0;part=1;html=1;" vertex="1" parent="vdG5TwxK16fCbcHkyAHa-1">
          <mxGeometry y="30" width="127" height="60" as="geometry" />
        </mxCell>
        <mxCell id="pwQ6uwaE0fB7_M7JyNYZ-1" value="Reserva" style="shape=rhombus;perimeter=rhombusPerimeter;whiteSpace=wrap;html=1;align=center;" vertex="1" parent="1">
          <mxGeometry x="346" y="-651" width="120" height="60" as="geometry" />
        </mxCell>
        <mxCell id="pwQ6uwaE0fB7_M7JyNYZ-2" value="id_reserva" style="ellipse;whiteSpace=wrap;html=1;align=center;" vertex="1" parent="1">
          <mxGeometry x="289" y="-578" width="100" height="40" as="geometry" />
        </mxCell>
        <mxCell id="pwQ6uwaE0fB7_M7JyNYZ-3" value="fecha" style="ellipse;whiteSpace=wrap;html=1;align=center;" vertex="1" parent="1">
          <mxGeometry x="331" y="-525" width="100" height="40" as="geometry" />
        </mxCell>
        <mxCell id="pwQ6uwaE0fB7_M7JyNYZ-4" value="plazas" style="ellipse;whiteSpace=wrap;html=1;align=center;" vertex="1" parent="1">
          <mxGeometry x="440" y="-581" width="100" height="40" as="geometry" />
        </mxCell>
        <mxCell id="pwQ6uwaE0fB7_M7JyNYZ-7" value="" style="endArrow=none;html=1;rounded=0;" edge="1" parent="1" source="pwQ6uwaE0fB7_M7JyNYZ-2" target="pwQ6uwaE0fB7_M7JyNYZ-1">
          <mxGeometry relative="1" as="geometry">
            <mxPoint x="360" y="-568" as="sourcePoint" />
            <mxPoint x="520" y="-568" as="targetPoint" />
          </mxGeometry>
        </mxCell>
        <mxCell id="pwQ6uwaE0fB7_M7JyNYZ-8" value="" style="endArrow=none;html=1;rounded=0;" edge="1" parent="1" source="pwQ6uwaE0fB7_M7JyNYZ-1" target="pwQ6uwaE0fB7_M7JyNYZ-4">
          <mxGeometry relative="1" as="geometry">
            <mxPoint x="360" y="-568" as="sourcePoint" />
            <mxPoint x="520" y="-568" as="targetPoint" />
          </mxGeometry>
        </mxCell>
        <mxCell id="pwQ6uwaE0fB7_M7JyNYZ-9" value="" style="endArrow=none;html=1;rounded=0;exitX=0.5;exitY=1;exitDx=0;exitDy=0;entryX=0.5;entryY=0;entryDx=0;entryDy=0;" edge="1" parent="1" source="pwQ6uwaE0fB7_M7JyNYZ-1" target="pwQ6uwaE0fB7_M7JyNYZ-3">
          <mxGeometry relative="1" as="geometry">
            <mxPoint x="360" y="-568" as="sourcePoint" />
            <mxPoint x="403" y="-528" as="targetPoint" />
          </mxGeometry>
        </mxCell>
        <mxCell id="pwQ6uwaE0fB7_M7JyNYZ-10" value="" style="endArrow=none;html=1;rounded=0;exitX=1.024;exitY=0.409;exitDx=0;exitDy=0;exitPerimeter=0;entryX=0;entryY=0.5;entryDx=0;entryDy=0;" edge="1" parent="1" source="uL5ODZiXSjdfLQcJrWgq-2" target="pwQ6uwaE0fB7_M7JyNYZ-1">
          <mxGeometry relative="1" as="geometry">
            <mxPoint x="360" y="-568" as="sourcePoint" />
            <mxPoint x="520" y="-568" as="targetPoint" />
          </mxGeometry>
        </mxCell>
        <mxCell id="pwQ6uwaE0fB7_M7JyNYZ-11" value="" style="endArrow=none;html=1;rounded=0;exitX=-0.016;exitY=0.4;exitDx=0;exitDy=0;exitPerimeter=0;entryX=1;entryY=0.5;entryDx=0;entryDy=0;" edge="1" parent="1" source="vdG5TwxK16fCbcHkyAHa-2" target="pwQ6uwaE0fB7_M7JyNYZ-1">
          <mxGeometry relative="1" as="geometry">
            <mxPoint x="360" y="-568" as="sourcePoint" />
            <mxPoint x="520" y="-568" as="targetPoint" />
          </mxGeometry>
        </mxCell>
        <mxCell id="pwQ6uwaE0fB7_M7JyNYZ-12" value="" style="endArrow=none;html=1;rounded=0;exitX=0.75;exitY=1;exitDx=0;exitDy=0;entryX=0.654;entryY=0.017;entryDx=0;entryDy=0;entryPerimeter=0;" edge="1" parent="1" source="uL5ODZiXSjdfLQcJrWgq-2" target="q_R-dfWZVJ3zUxn_ZxiV-1">
          <mxGeometry relative="1" as="geometry">
            <mxPoint x="360" y="-568" as="sourcePoint" />
            <mxPoint x="236" y="-525" as="targetPoint" />
          </mxGeometry>
        </mxCell>
        <mxCell id="q_R-dfWZVJ3zUxn_ZxiV-1" value="Embarque" style="swimlane;childLayout=stackLayout;horizontal=1;startSize=30;horizontalStack=0;rounded=1;fontSize=14;fontStyle=0;strokeWidth=2;resizeParent=0;resizeLast=1;shadow=0;dashed=0;align=center;html=1;" vertex="1" parent="1">
          <mxGeometry x="153" y="-473" width="127" height="60" as="geometry" />
        </mxCell>
        <mxCell id="q_R-dfWZVJ3zUxn_ZxiV-2" value="&lt;div&gt;- &lt;u&gt;codigoEmbarque&lt;/u&gt;&lt;/div&gt;" style="align=left;strokeColor=none;fillColor=none;spacingLeft=4;fontSize=12;verticalAlign=top;resizable=0;rotatable=0;part=1;html=1;" vertex="1" parent="q_R-dfWZVJ3zUxn_ZxiV-1">
          <mxGeometry y="30" width="127" height="30" as="geometry" />
        </mxCell>
        <mxCell id="q_R-dfWZVJ3zUxn_ZxiV-3" value="obtiene" style="shape=rhombus;perimeter=rhombusPerimeter;whiteSpace=wrap;html=1;align=center;" vertex="1" parent="1">
          <mxGeometry x="202" y="-549" width="66" height="38" as="geometry" />
        </mxCell>
        <mxCell id="q_R-dfWZVJ3zUxn_ZxiV-5" value="num_tarjeta" style="ellipse;whiteSpace=wrap;html=1;align=center;" vertex="1" parent="1">
          <mxGeometry x="436" y="-522" width="100" height="40" as="geometry" />
        </mxCell>
        <mxCell id="q_R-dfWZVJ3zUxn_ZxiV-6" value="" style="endArrow=none;html=1;rounded=0;exitX=0.658;exitY=0.9;exitDx=0;exitDy=0;exitPerimeter=0;entryX=0;entryY=0;entryDx=0;entryDy=0;" edge="1" parent="1" source="pwQ6uwaE0fB7_M7JyNYZ-1" target="q_R-dfWZVJ3zUxn_ZxiV-5">
          <mxGeometry relative="1" as="geometry">
            <mxPoint x="360" y="-568" as="sourcePoint" />
            <mxPoint x="520" y="-568" as="targetPoint" />
          </mxGeometry>
        </mxCell>
        <mxCell id="q_R-dfWZVJ3zUxn_ZxiV-7" value="" style="endArrow=none;html=1;rounded=0;exitX=0.646;exitY=1.067;exitDx=0;exitDy=0;exitPerimeter=0;entryX=0.559;entryY=0.02;entryDx=0;entryDy=0;entryPerimeter=0;" edge="1" parent="1" source="q_R-dfWZVJ3zUxn_ZxiV-2" target="LSXoMQSaA7U6Hk-Szjso-1">
          <mxGeometry relative="1" as="geometry">
            <mxPoint x="360" y="-518" as="sourcePoint" />
            <mxPoint x="235" y="-359" as="targetPoint" />
          </mxGeometry>
        </mxCell>
        <mxCell id="LSXoMQSaA7U6Hk-Szjso-1" value="Asiento" style="swimlane;childLayout=stackLayout;horizontal=1;startSize=30;horizontalStack=0;rounded=1;fontSize=14;fontStyle=0;strokeWidth=2;resizeParent=0;resizeLast=1;shadow=0;dashed=0;align=center;html=1;" vertex="1" parent="1">
          <mxGeometry x="165" y="-308" width="127" height="100" as="geometry" />
        </mxCell>
        <mxCell id="LSXoMQSaA7U6Hk-Szjso-2" value="&lt;div&gt;- &lt;u&gt;codigoAvion&lt;/u&gt;&lt;/div&gt;&lt;div&gt;- fila&lt;/div&gt;&lt;div&gt;- columna&lt;/div&gt;&lt;div&gt;- planta&lt;/div&gt;" style="align=left;strokeColor=none;fillColor=none;spacingLeft=4;fontSize=12;verticalAlign=top;resizable=0;rotatable=0;part=1;html=1;" vertex="1" parent="LSXoMQSaA7U6Hk-Szjso-1">
          <mxGeometry y="30" width="127" height="70" as="geometry" />
        </mxCell>
        <mxCell id="5p2EmA1zQOKWEkoSGZml-3" value="Aeropuerto" style="swimlane;childLayout=stackLayout;horizontal=1;startSize=30;horizontalStack=0;rounded=1;fontSize=14;fontStyle=0;strokeWidth=2;resizeParent=0;resizeLast=1;shadow=0;dashed=0;align=center;html=1;" vertex="1" parent="1">
          <mxGeometry x="838" y="-709" width="127" height="100" as="geometry" />
        </mxCell>
        <mxCell id="5p2EmA1zQOKWEkoSGZml-4" value="&lt;div&gt;- &lt;u&gt;codigoAeropuerto&lt;/u&gt;&lt;/div&gt;&lt;div&gt;- nombre&lt;/div&gt;&lt;div&gt;- localidad&lt;/div&gt;&lt;div&gt;- pais&lt;/div&gt;" style="align=left;strokeColor=none;fillColor=none;spacingLeft=4;fontSize=12;verticalAlign=top;resizable=0;rotatable=0;part=1;html=1;" vertex="1" parent="5p2EmA1zQOKWEkoSGZml-3">
          <mxGeometry y="30" width="127" height="70" as="geometry" />
        </mxCell>
        <mxCell id="5p2EmA1zQOKWEkoSGZml-5" value="Avión" style="swimlane;childLayout=stackLayout;horizontal=1;startSize=30;horizontalStack=0;rounded=1;fontSize=14;fontStyle=0;strokeWidth=2;resizeParent=0;resizeLast=1;shadow=0;dashed=0;align=center;html=1;" vertex="1" parent="1">
          <mxGeometry x="525" y="-423" width="127" height="100" as="geometry" />
        </mxCell>
        <mxCell id="5p2EmA1zQOKWEkoSGZml-6" value="&lt;div&gt;- &lt;u&gt;codigoAvion&lt;/u&gt;&lt;/div&gt;&lt;div&gt;- modelo&lt;/div&gt;&lt;div&gt;- plazas&lt;/div&gt;" style="align=left;strokeColor=none;fillColor=none;spacingLeft=4;fontSize=12;verticalAlign=top;resizable=0;rotatable=0;part=1;html=1;" vertex="1" parent="5p2EmA1zQOKWEkoSGZml-5">
          <mxGeometry y="30" width="127" height="70" as="geometry" />
        </mxCell>
        <mxCell id="qcABEj9bVrzG3p9Uuh1g-1" value="" style="endArrow=none;html=1;rounded=0;exitX=1;exitY=0.25;exitDx=0;exitDy=0;entryX=0;entryY=0.25;entryDx=0;entryDy=0;" edge="1" parent="1" source="LSXoMQSaA7U6Hk-Szjso-2" target="5p2EmA1zQOKWEkoSGZml-6">
          <mxGeometry relative="1" as="geometry">
            <mxPoint x="358" y="-492" as="sourcePoint" />
            <mxPoint x="518" y="-492" as="targetPoint" />
          </mxGeometry>
        </mxCell>
        <mxCell id="qcABEj9bVrzG3p9Uuh1g-2" value="" style="endArrow=none;html=1;rounded=0;entryX=0.5;entryY=0;entryDx=0;entryDy=0;exitX=0.575;exitY=1.062;exitDx=0;exitDy=0;exitPerimeter=0;" edge="1" parent="1" source="vdG5TwxK16fCbcHkyAHa-2" target="5p2EmA1zQOKWEkoSGZml-5">
          <mxGeometry relative="1" as="geometry">
            <mxPoint x="358" y="-492" as="sourcePoint" />
            <mxPoint x="518" y="-492" as="targetPoint" />
          </mxGeometry>
        </mxCell>
        <mxCell id="jn8XLe_j3HKYH_jHGh7_-1" value="asigna" style="shape=rhombus;perimeter=rhombusPerimeter;whiteSpace=wrap;html=1;align=center;" vertex="1" parent="1">
          <mxGeometry x="184.5" y="-376" width="101" height="44" as="geometry" />
        </mxCell>
        <mxCell id="dGJNGOMoY0LURofbb9rG-1" value="sale" style="shape=rhombus;perimeter=rhombusPerimeter;whiteSpace=wrap;html=1;align=center;" vertex="1" parent="1">
          <mxGeometry x="676" y="-717" width="120" height="60" as="geometry" />
        </mxCell>
        <mxCell id="dGJNGOMoY0LURofbb9rG-2" value="llega" style="shape=rhombus;perimeter=rhombusPerimeter;whiteSpace=wrap;html=1;align=center;" vertex="1" parent="1">
          <mxGeometry x="670" y="-630" width="120" height="60" as="geometry" />
        </mxCell>
        <mxCell id="dGJNGOMoY0LURofbb9rG-3" value="" style="endArrow=none;html=1;rounded=0;exitX=1;exitY=0;exitDx=0;exitDy=0;entryX=0;entryY=0.5;entryDx=0;entryDy=0;" edge="1" parent="1" source="vdG5TwxK16fCbcHkyAHa-2" target="dGJNGOMoY0LURofbb9rG-1">
          <mxGeometry relative="1" as="geometry">
            <mxPoint x="670" y="-685" as="sourcePoint" />
            <mxPoint x="830" y="-685" as="targetPoint" />
          </mxGeometry>
        </mxCell>
        <mxCell id="dGJNGOMoY0LURofbb9rG-4" value="" style="endArrow=none;html=1;rounded=0;entryX=0;entryY=0;entryDx=0;entryDy=0;" edge="1" parent="1" target="dGJNGOMoY0LURofbb9rG-2">
          <mxGeometry relative="1" as="geometry">
            <mxPoint x="645" y="-656" as="sourcePoint" />
            <mxPoint x="680" y="-690" as="targetPoint" />
          </mxGeometry>
        </mxCell>
        <mxCell id="dGJNGOMoY0LURofbb9rG-6" value="" style="endArrow=none;html=1;rounded=0;entryX=1;entryY=0;entryDx=0;entryDy=0;exitX=0;exitY=0.5;exitDx=0;exitDy=0;" edge="1" parent="1" source="5p2EmA1zQOKWEkoSGZml-4" target="dGJNGOMoY0LURofbb9rG-2">
          <mxGeometry relative="1" as="geometry">
            <mxPoint x="655" y="-646" as="sourcePoint" />
            <mxPoint x="710" y="-605" as="targetPoint" />
          </mxGeometry>
        </mxCell>
        <mxCell id="dGJNGOMoY0LURofbb9rG-7" value="" style="endArrow=none;html=1;rounded=0;exitX=0;exitY=0.5;exitDx=0;exitDy=0;" edge="1" parent="1" source="5p2EmA1zQOKWEkoSGZml-4" target="dGJNGOMoY0LURofbb9rG-1">
          <mxGeometry relative="1" as="geometry">
            <mxPoint x="848" y="-634" as="sourcePoint" />
            <mxPoint x="770" y="-605" as="targetPoint" />
          </mxGeometry>
        </mxCell>
      </root>
    </mxGraphModel>
  </diagram>
</mxfile>
